HIERARCHY
ROOT Hips
{
	OFFSET -0.001795 -0.223333 0.028219
	CHANNELS 6 Xposition Yposition Zposition Zrotation Yrotation Xrotation 
	JOINT LeftUpLeg
	{
		OFFSET 0.069520 -0.091406 -0.006815
		CHANNELS 3 Zrotation Yrotation Xrotation
		JOINT LeftLeg
		{
			OFFSET 0.034277 -0.375199 -0.004496
			CHANNELS 3 Zrotation Yrotation Xrotation
			JOINT LeftFoot
			{
				OFFSET -0.013596 -0.397961 -0.043693
				CHANNELS 3 Zrotation Yrotation Xrotation
				JOINT LeftToe
				{
					OFFSET 0.026358 -0.055791 0.119288
					CHANNELS 3 Zrotation Yrotation Xrotation
					End Site
					{
						OFFSET 0.000000 0.000000 0.000000
					}
				}
			}
		}
	}
	JOINT RightUpLeg
	{
		OFFSET -0.067670 -0.090522 -0.004320
		CHANNELS 3 Zrotation Yrotation Xrotation
		JOINT RightLeg
		{
			OFFSET -0.038290 -0.382569 -0.008850
			CHANNELS 3 Zrotation Yrotation Xrotation
			JOINT RightFoot
			{
				OFFSET 0.015774 -0.398415 -0.042312
				CHANNELS 3 Zrotation Yrotation Xrotation
				JOINT RightToe
				{
					OFFSET -0.025372 -0.048144 0.123348
					CHANNELS 3 Zrotation Yrotation Xrotation
					End Site
					{
						OFFSET 0.000000 0.000000 0.000000
					}
				}
			}
		}
	}
	JOINT Spine
	{
		OFFSET -0.002533 0.108963 -0.026696
		CHANNELS 3 Zrotation Yrotation Xrotation
		JOINT Spine1
		{
			OFFSET 0.005487 0.135180 0.001092
			CHANNELS 3 Zrotation Yrotation Xrotation
			JOINT Spine2
			{
				OFFSET 0.001457 0.052922 0.025425
				CHANNELS 3 Zrotation Yrotation Xrotation
				JOINT Neck
				{
					OFFSET -0.002778 0.213870 -0.042857
					CHANNELS 3 Zrotation Yrotation Xrotation
					JOINT Head
					{
						OFFSET 0.005152 0.064970 0.051349
						CHANNELS 3 Zrotation Yrotation Xrotation
						End Site
						{
							OFFSET 0.000000 0.000000 0.000000
						}
					}
				}
				JOINT LeftShoulder
				{
					OFFSET 0.078845 0.121749 -0.034090
					CHANNELS 3 Zrotation Yrotation Xrotation
					JOINT LeftArm
					{
						OFFSET 0.090977 0.030469 -0.008868
						CHANNELS 3 Zrotation Yrotation Xrotation
						JOINT LeftForeArm
						{
							OFFSET 0.259612 -0.012772 -0.027456
							CHANNELS 3 Zrotation Yrotation Xrotation
							JOINT LeftHand
							{
								OFFSET 0.249234 0.008986 -0.001171
								CHANNELS 3 Zrotation Yrotation Xrotation
								End Site
								{
									OFFSET 0.000000 0.000000 0.000000
								}
							}
						}
					}
				}
				JOINT RightShoulder
				{
					OFFSET -0.081759 0.118833 -0.038615
					CHANNELS 3 Zrotation Yrotation Xrotation
					JOINT RightArm
					{
						OFFSET -0.096012 0.032551 -0.009143
						CHANNELS 3 Zrotation Yrotation Xrotation
						JOINT RightForeArm
						{
							OFFSET -0.253742 -0.013329 -0.021401
							CHANNELS 3 Zrotation Yrotation Xrotation
							JOINT RightHand
							{
								OFFSET -0.255298 0.007772 -0.005559
								CHANNELS 3 Zrotation Yrotation Xrotation
								End Site
								{
									OFFSET 0.000000 0.000000 0.000000
								}
							}
						}
					}
				}
			}
		}
	}
}
MOTION
Frames: 12
Frame Time: 0.050000
0.323345 0.921931 -3.526742 -0.116666 6.796506 -1.112517 6.678730 -1.376313 -25.177723 -9.555823 1.780474 34.122268 22.313849 33.164148 32.156515 0.000000 0.000000 0.000000 6.379345 -0.478692 2.450065 -3.402040 1.276195 15.670993 2.494365 7.155335 -1.033103 0.000000 0.000000 0.000000 2.966447 -2.136821 25.304864 1.263065 0.534342 -26.929281 -1.728785 21.554610 23.971094 16.074982 -5.229563 -20.992968 0.000000 0.000000 0.000000 -13.184709 -6.115572 -2.813635 -55.128507 1.049441 -9.008849 -1.832093 -31.825527 -0.064641 0.000000 0.000000 0.000000 17.672754 -0.470225 4.045329 60.852704 18.265625 2.313272 -11.720950 34.171947 0.267190 0.000000 0.000000 0.000000 
0.331015 0.908029 -3.462060 0.236085 0.149727 -1.594717 6.596039 -1.074464 -29.142538 -7.585334 1.311125 14.529859 26.831721 32.756867 49.596412 0.000000 0.000000 0.000000 3.941635 -1.278545 8.854936 -4.069684 1.400377 12.577618 4.242749 14.378347 -3.706252 0.000000 0.000000 0.000000 0.962961 -1.361982 26.984578 3.517631 -0.085315 -27.028901 -3.185749 25.526655 22.990235 16.677282 -5.991806 -19.811507 0.000000 0.000000 0.000000 -12.883393 -6.217542 -2.618346 -54.009986 2.734063 -9.543137 -2.654461 -29.934373 0.244855 0.000000 0.000000 0.000000 19.600397 0.766233 5.250645 58.855113 21.985841 3.486032 -11.152213 37.227145 0.431512 0.000000 0.000000 0.000000 
0.339242 0.891335 -3.391256 0.160551 -5.610250 -1.412852 6.490521 -0.567621 -31.568953 -4.005283 0.509301 3.912084 10.801884 20.194898 42.113759 0.000000 0.000000 0.000000 1.851178 -1.425996 13.174196 -5.577529 1.790143 12.428968 5.681406 20.094228 -4.878281 0.000000 0.000000 0.000000 0.434760 -0.830440 26.389547 2.056033 0.004640 -24.724161 -3.432841 26.934595 20.745113 19.864986 -7.818680 -21.825637 0.000000 0.000000 0.000000 -10.865416 -5.815455 -1.777658 -55.102899 2.815810 -10.070479 -2.319452 -26.740506 0.343100 0.000000 0.000000 0.000000 20.048888 0.815442 4.881096 58.733921 24.284172 4.850110 -9.246476 39.649442 0.975912 0.000000 0.000000 0.000000 
0.346845 0.876036 -3.312442 0.366608 -11.552910 -1.065710 7.479720 0.471329 -32.953965 -4.519140 0.697054 5.365285 5.403942 13.607595 32.853289 0.000000 0.000000 0.000000 -1.378475 -0.893497 17.001563 -6.727520 2.115426 12.611948 8.543234 23.618713 -1.388969 0.000000 0.000000 0.000000 -1.417916 -0.013961 25.252657 0.563661 0.213599 -24.436897 -1.625780 27.367661 20.846096 18.366140 -7.845457 -19.780184 0.000000 0.000000 0.000000 -10.961137 -6.302880 -1.027907 -54.034368 2.930169 -9.841319 -3.625634 -22.810915 0.845406 0.000000 0.000000 0.000000 20.493621 2.716588 5.371383 57.716174 24.165723 4.351616 -4.683307 43.235553 2.529895 0.000000 0.000000 0.000000 
0.353796 0.865773 -3.225881 0.489658 -16.013263 -0.222838 8.342335 1.453803 -34.378956 -6.933494 1.841846 14.333372 5.991808 13.045344 23.974769 0.000000 0.000000 0.000000 -4.558900 0.062267 18.907097 -7.113730 2.579618 14.903101 13.318779 21.890383 9.205181 0.000000 0.000000 0.000000 -2.309922 0.313353 22.046905 0.208365 0.119970 -22.849472 -3.051792 26.443287 20.286024 16.063720 -6.888724 -18.838262 0.000000 0.000000 0.000000 -10.668130 -5.246335 -0.810677 -53.463018 3.268432 -9.872554 -2.217667 -21.371875 0.716815 0.000000 0.000000 0.000000 22.370253 4.346733 5.847404 56.390291 22.510280 2.929494 1.893804 45.985198 5.062633 0.000000 0.000000 0.000000 
0.361787 0.863020 -3.134787 0.578993 -19.640817 -0.757382 9.537508 2.361583 -33.812052 -10.932609 4.897093 25.203234 7.501169 14.657180 13.646435 0.000000 0.000000 0.000000 -7.381918 0.845740 15.574599 -7.387639 5.146811 27.218470 18.614304 17.180132 24.140054 0.000000 0.000000 0.000000 -2.648487 0.501666 21.266395 -2.236647 0.635036 -23.247108 -1.443918 24.807812 21.380238 14.761601 -6.306823 -19.652875 0.000000 0.000000 0.000000 -10.926384 -4.610400 -0.486796 -52.431145 2.724673 -9.408564 -2.152749 -18.940704 0.803228 0.000000 0.000000 0.000000 21.386119 4.571553 4.774633 58.422560 19.370660 1.644752 5.080115 45.463378 6.036816 0.000000 0.000000 0.000000 
0.371298 0.867856 -3.047540 1.320674 -20.042582 -1.514416 7.634875 1.488367 -31.658339 -12.232994 7.000000 32.008303 8.081754 15.924383 7.050936 0.000000 0.000000 0.000000 -7.714707 0.638206 8.038365 -7.046331 9.843705 44.457778 17.879849 9.346978 34.438092 0.000000 0.000000 0.000000 -3.366914 0.648815 20.903753 -1.763914 0.498058 -22.812680 -2.807892 20.998437 21.097488 14.037756 -6.675601 -18.575620 0.000000 0.000000 0.000000 -12.395349 -4.432729 -0.145947 -49.643353 2.214815 -8.498036 -2.911907 -20.957616 1.151312 0.000000 0.000000 0.000000 21.724987 4.966728 3.937720 59.318246 13.590862 -1.215991 7.928215 43.200814 6.279940 0.000000 0.000000 0.000000 
0.381134 0.877618 -2.968657 1.234054 -21.329892 -2.635591 5.364188 0.435886 -26.224110 -11.756898 7.569039 33.728199 8.801559 17.643670 3.085494 0.000000 0.000000 0.000000 -4.963147 0.454684 -2.434291 -5.245528 15.362851 61.608196 12.178538 2.630365 34.410250 0.000000 0.000000 0.000000 -2.165555 0.564354 22.626657 -2.636196 0.714970 -23.293301 -3.841549 18.393474 21.704942 12.360716 -5.773936 -19.517619 0.000000 0.000000 0.000000 -10.291289 -4.445454 0.616125 -50.089911 -0.640311 -7.599101 -4.311391 -22.622365 1.637855 0.000000 0.000000 0.000000 21.916310 4.245944 2.624132 60.571059 8.812674 -3.653881 6.114710 38.763983 4.554143 0.000000 0.000000 0.000000 
0.390448 0.892269 -2.895487 1.781720 -20.374517 -4.325182 1.111947 -0.868486 -19.034496 -10.152103 6.395493 31.994117 8.747371 18.015073 1.951036 0.000000 0.000000 0.000000 -1.513598 1.270238 -12.336494 -0.408662 14.526254 71.038797 3.810164 -4.209511 24.431711 0.000000 0.000000 0.000000 -1.957506 0.669682 25.274303 -0.062286 0.115585 -23.621100 -6.752272 14.638655 21.756441 11.768610 -5.646889 -20.452185 0.000000 0.000000 0.000000 -10.380101 -3.461548 0.575730 -50.428269 -2.665963 -6.836990 -2.168640 -25.486855 1.530327 0.000000 0.000000 0.000000 21.874607 4.261101 1.818298 60.522765 3.776094 -6.222925 3.691529 34.195571 2.951915 0.000000 0.000000 0.000000 
0.398302 0.907293 -2.823983 0.464155 -19.701381 -4.782585 -1.748937 -1.103464 -11.914615 -7.387066 4.471294 29.144464 8.641189 18.083253 2.346388 0.000000 0.000000 0.000000 1.609037 2.904316 -20.746467 1.199007 11.722124 68.481498 -1.364900 -7.987981 10.001155 0.000000 0.000000 0.000000 0.215621 0.156540 26.157142 0.823828 -0.116799 -23.005750 -7.591512 11.144810 22.825275 9.948394 -4.495473 -23.078571 0.000000 0.000000 0.000000 -9.081008 -2.550407 0.635566 -51.704007 -5.757932 -5.739627 -0.761067 -29.847406 1.688092 0.000000 0.000000 0.000000 21.279341 3.059852 0.332618 59.023916 -1.570048 -8.764090 4.261558 31.049577 2.568897 0.000000 0.000000 0.000000 
0.403979 0.919064 -2.751736 -0.466956 -16.811377 -4.655170 -4.419942 -0.661198 -4.588244 -4.545873 2.273662 24.519034 7.509667 16.038405 2.969387 0.000000 0.000000 0.000000 3.310088 4.017892 -25.129834 0.502996 7.393340 54.718960 -3.049145 -9.355205 3.703365 0.000000 0.000000 0.000000 2.048100 -0.439121 26.927274 1.016362 -0.133571 -22.246389 -7.890894 6.484242 23.146657 9.080423 -4.049851 -25.450405 0.000000 0.000000 0.000000 -8.357383 -2.591572 0.974618 -52.446409 -8.302710 -4.576329 3.836050 -34.367624 0.901103 0.000000 0.000000 0.000000 20.834004 1.778860 -1.144863 57.312036 -7.262735 -11.086934 4.924239 28.334531 2.265645 0.000000 0.000000 0.000000 
0.407975 0.923169 -2.677321 -1.350086 -14.131046 -3.252608 -4.875140 0.146581 1.323608 -4.384810 1.558003 20.125592 6.639834 14.424125 3.485196 0.000000 0.000000 0.000000 4.678260 4.448057 -26.375910 -0.484955 3.477396 34.408632 -3.511909 -9.251071 0.852905 0.000000 0.000000 0.000000 2.955561 -0.863814 25.779005 2.585894 -0.426644 -22.968362 -8.123014 4.491740 24.743525 10.227832 -4.682790 -26.703532 0.000000 0.000000 0.000000 -7.111048 -2.727532 1.111820 -53.166038 -9.030071 -4.366816 6.631336 -41.783183 0.381825 0.000000 0.000000 0.000000 21.801181 -0.778357 -2.847902 53.627509 -12.407900 -12.587409 4.674202 27.237137 2.049310 0.000000 0.000000 0.000000 
